# Blender 4.1.1
# www.blender.org
mtllib box.mtl
o Куб
v 0.255621 0.168269 -1.991394
v -1.735686 0.168269 -1.991394
v 0.255621 0.168269 1.991394
v -1.735686 0.168269 1.991394
v 0.255621 2.159576 -1.991394
v -1.735687 2.159576 -1.991394
v 0.255621 2.159576 1.991394
v -1.735687 2.159576 1.991394
vn -0.0000 -1.0000 -0.0000
vn -0.0000 -0.0000 1.0000
vn -0.0000 1.0000 -0.0000
vn -0.0000 -0.0000 -1.0000
vn 1.0000 -0.0000 -0.0000
vn -1.0000 -0.0000 -0.0000
vt 0.380209 0.065257
vt 0.624531 0.065257
vt 0.624531 0.355655
vt 0.380209 0.355655
vt 0.380709 0.358846
vt 0.624606 0.358846
vt 0.624606 0.499768
vt 0.380709 0.499768
vt 0.379990 0.503050
vt 0.624375 0.503050
vt 0.624375 0.793910
vt 0.379990 0.793910
vt 0.380000 0.797427
vt 0.624409 0.797427
vt 0.624409 0.937868
vt 0.380000 0.937868
vt 0.130118 0.503474
vt 0.373819 0.503474
vt 0.373819 0.793541
vt 0.130118 0.793541
vt 0.629844 0.503358
vt 0.874531 0.503358
vt 0.874531 0.793541
vt 0.629844 0.793541
s 0
usemtl Материал
f 1/1/1 3/4/1 4/3/1 2/2/1
f 3/5/2 7/8/2 8/7/2 4/6/2
f 7/9/3 5/12/3 6/11/3 8/10/3
f 5/13/4 1/16/4 2/15/4 6/14/4
f 3/17/5 1/20/5 5/19/5 7/18/5
f 8/21/6 6/24/6 2/23/6 4/22/6
o Плоскость.001
v -5.544825 2.146605 1.982192
v -5.544825 2.146605 -1.982192
v -6.479312 1.808558 1.982192
v -6.479312 1.808558 -1.982192
v -6.484308 1.822370 1.982192
v -5.549821 2.160418 1.982192
v -5.549821 2.160418 -1.982192
v -6.484308 1.822370 -1.982192
v -3.568559 2.141111 -1.982192
v -3.568555 2.141114 1.982192
v -2.639919 1.787317 -1.982192
v -2.639915 1.787319 1.982191
v -2.634689 1.801043 -1.982192
v -3.563329 2.154837 -1.982192
v -3.563326 2.154840 1.982192
v -2.634686 1.801045 1.982191
v -3.557375 0.168267 -1.991394
v -3.581205 0.192251 -1.943733
v -5.548683 0.168267 -1.991394
v -5.524853 0.192251 -1.943733
v -3.557375 0.168267 1.991394
v -3.581205 0.192251 1.943733
v -5.548683 0.168267 1.991394
v -5.524853 0.192251 1.943733
v -3.557375 2.159574 -1.991394
v -5.548683 2.159574 -1.991394
v -3.557375 2.159574 1.991394
v -5.548683 2.159574 1.991394
v -3.581205 2.159574 1.943733
v -5.524854 2.159574 1.943733
v -3.581205 2.159574 -1.943733
v -5.524854 2.159574 -1.943733
vn 0.3402 -0.9404 -0.0000
vn -0.3402 0.9404 -0.0000
vn 0.9404 0.3402 -0.0000
vn -0.0000 -0.0000 -1.0000
vn -0.0000 -0.0000 1.0000
vn -0.9404 -0.3402 -0.0000
vn -0.3560 -0.9345 -0.0000
vn 0.3560 0.9345 -0.0000
vn -0.9345 0.3560 -0.0000
vn 0.9345 -0.3560 -0.0000
vn -0.0000 1.0000 -0.0000
vn -0.0000 -1.0000 -0.0000
vn -1.0000 -0.0000 -0.0000
vn 1.0000 -0.0000 -0.0000
vt 0.506966 0.793527
vt 0.507242 0.503612
vt 0.380003 0.503570
vt 0.379728 0.793485
vt 0.384742 0.068749
vt 0.619008 0.068749
vt 0.619008 0.352574
vt 0.384742 0.352574
vt 1.000000 0.000000
vt 1.000000 1.000000
vt 0.561310 0.333472
vt 0.453620 0.333472
vt 0.453620 0.118092
vt 0.561310 0.118092
vt 0.380209 0.065257
vt 0.624531 0.065257
vt 0.624531 0.355655
vt 0.380209 0.355655
vt 0.380709 0.358846
vt 0.624606 0.358846
vt 0.624606 0.499768
vt 0.380709 0.499768
vt 0.382915 0.790429
vt 0.379990 0.793910
vt 0.379990 0.503050
vt 0.624375 0.503050
vt 0.624375 0.793910
vt 0.621450 0.790429
vt 0.621450 0.506530
vt 0.382915 0.506530
vt 0.380000 0.797427
vt 0.624409 0.797427
vt 0.624409 0.937868
vt 0.380000 0.937868
vt 0.130118 0.503474
vt 0.373819 0.503474
vt 0.373819 0.793541
vt 0.130118 0.793541
vt 0.629844 0.503358
vt 0.874531 0.503358
vt 0.874531 0.793541
vt 0.629844 0.793541
vt 0.612194 0.336733
vt 0.612194 0.221792
vt 0.393121 0.221792
vt 0.393121 0.336734
vt 0.387562 0.234182
vt 0.387562 0.353820
vt 0.616848 0.353820
vt 0.616848 0.234182
vt 0.430692 0.134578
vt 0.430692 0.333721
vt 0.582620 0.333721
vt 0.582620 0.134578
vt 0.604036 0.337777
vt 0.604036 0.090721
vt 0.414867 0.090721
vt 0.414867 0.337777
s 0
usemtl Материал
f 11/25/7 12/26/7 10/27/7 9/28/7
f 13/29/8 14/30/8 15/31/8 16/32/8
f 9/33/9 10/34/9 15/34/9 14/33/9
f 10/35/10 12/36/10 16/36/10 15/35/10
f 11/37/11 9/38/11 14/38/11 13/37/11
f 12/36/12 11/37/12 13/37/12 16/36/12
f 19/25/13 20/26/13 18/27/13 17/28/13
f 21/29/14 22/30/14 23/31/14 24/32/14
f 17/33/15 18/34/15 23/34/15 22/33/15
f 18/35/11 20/36/11 24/36/11 23/35/11
f 19/37/10 17/38/10 22/38/10 21/37/10
f 20/36/16 19/37/16 21/37/16 24/36/16
f 25/39/17 27/40/17 31/41/17 29/42/17
f 29/43/10 31/44/10 36/45/10 35/46/10
f 39/47/18 33/48/18 35/49/18 36/50/18 34/51/18 40/52/18 38/53/18 37/54/18
f 34/51/18 33/48/18 39/47/18 40/52/18
f 33/55/11 34/56/11 27/57/11 25/58/11
f 29/59/19 35/60/19 33/61/19 25/62/19
f 36/63/20 31/64/20 27/65/20 34/66/20
f 26/39/18 30/42/18 32/41/18 28/40/18
f 38/67/11 32/68/11 30/69/11 37/70/11
f 39/71/10 26/72/10 28/73/10 40/74/10
f 30/75/20 26/76/20 39/77/20 37/78/20
f 28/79/19 32/80/19 38/81/19 40/82/19
